<svg width="160" height="44" viewBox="0 0 160 44" fill="none" xmlns="http://www.w3.org/2000/svg">
  <rect width="160" height="44" rx="4" fill="black"/>
  <path d="M44.7973 20.8637C44.8081 20.029 45.0298 19.2106 45.4418 18.4847C45.8538 17.7587 46.4428 17.1488 47.1539 16.7116C46.7021 16.0665 46.1062 15.5355 45.4134 15.161C44.7205 14.7864 43.9499 14.5786 43.1627 14.5539C41.4835 14.3777 39.8555 15.5588 38.9998 15.5588C38.1275 15.5588 36.81 14.5714 35.3913 14.6006C34.4736 14.6303 33.5793 14.8971 32.7954 15.3752C32.0115 15.8533 31.3649 16.5262 30.9184 17.3285C28.9844 20.6769 30.427 25.598 32.2796 28.3046C33.2065 29.6299 34.2898 31.1104 35.7072 31.0579C37.0943 31.0004 37.6123 30.1734 39.2866 30.1734C40.9454 30.1734 41.4314 31.0579 42.8776 31.0245C44.366 31.0003 45.3038 29.6933 46.1981 28.3554C46.8641 27.411 47.3766 26.3673 47.7166 25.2629C46.8518 24.8971 46.1139 24.2849 45.5948 23.5027C45.0757 22.7204 44.7983 21.8026 44.7973 20.8637Z" fill="white"/>
  <path d="M42.0657 12.7739C42.8772 11.7997 43.277 10.5475 43.1802 9.28326C41.9404 9.41348 40.7951 10.006 39.9726 10.9429C39.5705 11.4005 39.2625 11.933 39.0663 12.5097C38.87 13.0865 38.7894 13.6963 38.8289 14.3043C39.4491 14.3106 40.0626 14.1762 40.6232 13.9111C41.1839 13.6461 41.6771 13.2572 42.0657 12.7739Z" fill="white"/>
  <path d="M62.875 27.7026H58.1416L57.0049 31.0591H55L59.4834 18.6411H61.5664L66.0498 31.0591H64.0107L62.875 27.7026ZM58.6318 26.1538H62.3838L60.5342 20.7065H60.4825L58.6318 26.1538Z" fill="white"/>
  <path d="M75.7325 26.5327C75.7325 29.3462 74.2266 31.1538 71.9541 31.1538C71.3785 31.1839 70.806 31.0513 70.3022 30.7711C69.7984 30.491 69.3837 30.0747 69.1055 29.5698H69.0625V34.0542H67.2041V22.0053H69.003V23.5112H69.0371C69.3281 23.0087 69.7498 22.5945 70.2575 22.3127C70.7651 22.0308 71.3396 21.8919 71.92 21.9106C74.2178 21.9106 75.7325 23.727 75.7325 26.5327ZM73.8223 26.5327C73.8223 24.6997 72.875 23.4946 71.4297 23.4946C70.0098 23.4946 69.0547 24.7251 69.0547 26.5327C69.0547 28.3569 70.0098 29.5786 71.4297 29.5786C72.875 29.5786 73.8223 28.3823 73.8223 26.5327Z" fill="white"/>
  <path d="M85.6972 26.5327C85.6972 29.3462 84.1914 31.1538 81.9189 31.1538C81.3433 31.1839 80.7708 31.0513 80.267 30.7712C79.7632 30.4911 79.3484 30.0747 79.0703 29.5698H79.0273V34.0542H77.1689V22.0054H78.9677V23.5112H79.0019C79.2928 23.0088 79.7146 22.5946 80.2222 22.3127C80.7298 22.0309 81.3044 21.8919 81.8847 21.9107C84.1826 21.9107 85.6972 23.7271 85.6972 26.5327ZM83.7871 26.5327C83.7871 24.6997 82.8398 23.4946 81.3945 23.4946C79.9746 23.4946 79.0195 24.7251 79.0195 26.5327C79.0195 28.357 79.9746 29.5786 81.3945 29.5786C82.8398 29.5786 83.7871 28.3823 83.7871 26.5327Z" fill="white"/>
  <path d="M92.2832 27.5991C92.4209 28.8306 93.6172 29.6391 95.252 29.6391C96.8184 29.6391 97.9453 28.8305 97.9453 27.7202C97.9453 26.7563 97.2656 26.1792 95.6563 25.7836L94.0469 25.3959C91.7666 24.8452 90.708 23.7788 90.708 22.0483C90.708 19.9057 92.5752 18.434 95.2266 18.434C97.8506 18.434 99.6494 19.9057 99.71 22.0483H97.834C97.7217 20.809 96.6973 20.061 95.2002 20.061C93.7031 20.061 92.6787 20.8178 92.6787 21.9194C92.6787 22.7973 93.333 23.3139 94.9336 23.7094L96.3018 24.0453C98.8496 24.6479 99.9082 25.6713 99.9082 27.4877C99.9082 29.8109 98.0576 31.266 95.1143 31.266C92.3603 31.266 90.501 29.8451 90.3809 27.599L92.2832 27.5991Z" fill="white"/>
  <path d="M103.919 19.8628V22.0054H105.641V23.4771H103.919V28.4683C103.919 29.2437 104.264 29.605 105.021 29.605C105.225 29.6014 105.429 29.5871 105.632 29.562V31.0249C105.292 31.0885 104.946 31.1172 104.6 31.1108C102.767 31.1108 102.052 30.4223 102.052 28.6665V23.4771H100.735V22.0054H102.052V19.8628H103.919Z" fill="white"/>
  <path d="M106.638 26.5327C106.638 23.6841 108.315 21.894 110.932 21.894C113.557 21.894 115.227 23.684 115.227 26.5327C115.227 29.3892 113.565 31.1714 110.932 31.1714C108.299 31.1714 106.638 29.3892 106.638 26.5327ZM113.333 26.5327C113.333 24.5786 112.438 23.4253 110.932 23.4253C109.426 23.4253 108.531 24.5874 108.531 26.5327C108.531 28.4946 109.426 29.6392 110.932 29.6392C112.438 29.6392 113.333 28.4946 113.333 26.5327Z" fill="white"/>
  <path d="M116.759 22.0054H118.531V23.5464H118.574C118.694 23.0651 118.976 22.6398 119.373 22.3419C119.769 22.044 120.256 21.8917 120.752 21.9106C120.966 21.9099 121.18 21.9331 121.389 21.98V23.7183C121.118 23.6356 120.836 23.5977 120.554 23.606C120.284 23.595 120.015 23.6426 119.765 23.7455C119.515 23.8484 119.29 24.0041 119.106 24.202C118.922 24.3999 118.783 24.6352 118.699 24.8919C118.615 25.1486 118.587 25.4205 118.617 25.689V31.0591H116.759L116.759 22.0054Z" fill="white"/>
  <path d="M129.957 28.3999C129.707 30.0435 128.106 31.1714 126.059 31.1714C123.425 31.1714 121.79 29.4067 121.79 26.5757C121.79 23.7358 123.434 21.894 125.98 21.894C128.485 21.894 130.061 23.6147 130.061 26.3599V26.9966H123.666V27.1089C123.637 27.4421 123.678 27.7778 123.788 28.0936C123.899 28.4094 124.075 28.6982 124.305 28.9408C124.535 29.1833 124.815 29.3741 125.124 29.5004C125.434 29.6267 125.767 29.6856 126.102 29.6733C126.541 29.7145 126.981 29.6128 127.358 29.3833C127.735 29.1539 128.027 28.809 128.192 28.3999L129.957 28.3999ZM123.675 25.6978H128.201C128.218 25.3982 128.172 25.0983 128.068 24.8171C127.963 24.5359 127.801 24.2794 127.593 24.0636C127.384 23.8479 127.133 23.6775 126.856 23.5633C126.579 23.4491 126.28 23.3935 125.98 23.3999C125.678 23.3981 125.378 23.4562 125.098 23.571C124.818 23.6857 124.563 23.8548 124.349 24.0684C124.134 24.2821 123.965 24.536 123.849 24.8157C123.733 25.0953 123.674 25.3951 123.675 25.6978Z" fill="white"/>
  <path d="M58.3989 9.294C58.7885 9.26604 59.1795 9.3249 59.5436 9.46634C59.9077 9.60777 60.2359 9.82825 60.5045 10.1119C60.7731 10.3955 60.9754 10.7352 61.0968 11.1065C61.2182 11.4777 61.2557 11.8713 61.2065 12.2588C61.2065 14.1651 60.1763 15.2608 58.3989 15.2608H56.2437V9.294H58.3989ZM57.1704 14.417H58.2954C58.5738 14.4336 58.8524 14.388 59.111 14.2834C59.3695 14.1788 59.6015 14.0178 59.79 13.8123C59.9784 13.6067 60.1187 13.3617 60.2006 13.0951C60.2824 12.8284 60.3038 12.5469 60.2632 12.271C60.3009 11.9962 60.2773 11.7164 60.1942 11.4517C60.1111 11.1871 59.9705 10.9441 59.7824 10.7401C59.5943 10.5362 59.3635 10.3764 59.1064 10.2722C58.8493 10.1679 58.5724 10.1218 58.2954 10.1372H57.1704V14.417Z" fill="white"/>
  <path d="M62.2534 13.0073C62.2251 12.7114 62.2589 12.4129 62.3528 12.1308C62.4466 11.8487 62.5984 11.5894 62.7983 11.3694C62.9983 11.1494 63.242 10.9736 63.5138 10.8534C63.7857 10.7331 64.0797 10.671 64.3769 10.671C64.6742 10.671 64.9682 10.7331 65.24 10.8534C65.5119 10.9736 65.7556 11.1494 65.9555 11.3694C66.1555 11.5894 66.3072 11.8487 66.4011 12.1308C66.4949 12.4129 66.5288 12.7114 66.5005 13.0073C66.5293 13.3036 66.4959 13.6025 66.4023 13.8851C66.3087 14.1676 66.157 14.4274 65.957 14.6478C65.757 14.8682 65.5131 15.0444 65.241 15.1649C64.9689 15.2854 64.6745 15.3477 64.3769 15.3477C64.0793 15.3477 63.785 15.2854 63.5128 15.1649C63.2407 15.0444 62.9968 14.8682 62.7968 14.6478C62.5968 14.4274 62.4452 14.1676 62.3516 13.8851C62.258 13.6025 62.2245 13.3036 62.2534 13.0073ZM65.5864 13.0073C65.5864 12.0313 65.1479 11.4605 64.3784 11.4605C63.6059 11.4605 63.1714 12.0313 63.1714 13.0073C63.1714 13.9912 63.606 14.5576 64.3784 14.5576C65.1479 14.5576 65.5864 13.9873 65.5864 13.0073Z" fill="white"/>
  <path d="M72.146 15.2607H71.2241L70.2935 11.9443H70.2232L69.2964 15.2607H68.3833L67.1421 10.7578H68.0435L68.8501 14.1938H68.9165L69.8423 10.7578H70.6948L71.6206 14.1938H71.6909L72.4937 10.7578H73.3823L72.146 15.2607Z" fill="white"/>
  <path d="M74.4263 10.7578H75.2817V11.4731H75.3481C75.4608 11.2162 75.6508 11.0008 75.8917 10.857C76.1325 10.7132 76.4123 10.6481 76.6919 10.6709C76.911 10.6544 77.131 10.6874 77.3356 10.7675C77.5402 10.8476 77.7241 10.9727 77.8738 11.1336C78.0235 11.2944 78.1351 11.4869 78.2003 11.6967C78.2655 11.9065 78.2826 12.1283 78.2505 12.3457V15.2607H77.3618V12.5688C77.3618 11.8452 77.0474 11.4853 76.3901 11.4853C76.2414 11.4784 76.0929 11.5037 75.9548 11.5596C75.8168 11.6154 75.6924 11.7004 75.5903 11.8088C75.4882 11.9172 75.4107 12.0464 75.3632 12.1875C75.3156 12.3286 75.2992 12.4784 75.3149 12.6264V15.2607H74.4263L74.4263 10.7578Z" fill="white"/>
  <path d="M79.6665 9H80.5552V15.2607H79.6665V9Z" fill="white"/>
  <path d="M81.7905 13.0074C81.7623 12.7114 81.7961 12.4128 81.89 12.1308C81.9839 11.8487 82.1356 11.5893 82.3356 11.3693C82.5356 11.1494 82.7793 10.9736 83.0512 10.8533C83.323 10.733 83.617 10.6709 83.9143 10.6709C84.2116 10.6709 84.5056 10.733 84.7775 10.8533C85.0494 10.9736 85.2931 11.1494 85.493 11.3693C85.693 11.5893 85.8448 11.8487 85.9386 12.1308C86.0325 12.4128 86.0664 12.7114 86.0381 13.0074C86.0669 13.3036 86.0334 13.6026 85.9398 13.8851C85.8462 14.1676 85.6945 14.4274 85.4945 14.6478C85.2945 14.8683 85.0506 15.0444 84.7784 15.1649C84.5063 15.2854 84.212 15.3477 83.9143 15.3477C83.6167 15.3477 83.3223 15.2854 83.0502 15.1649C82.7781 15.0444 82.5342 14.8683 82.3342 14.6478C82.1341 14.4274 81.9825 14.1676 81.8888 13.8851C81.7952 13.6026 81.7617 13.3036 81.7905 13.0074ZM85.1235 13.0074C85.1235 12.0313 84.6851 11.4605 83.9155 11.4605C83.1431 11.4605 82.7085 12.0313 82.7085 13.0074C82.7085 13.9913 83.1431 14.5577 83.9155 14.5577C84.6851 14.5577 85.1235 13.9873 85.1235 13.0074Z" fill="white"/>
  <path d="M86.9736 13.9873C86.9736 13.1767 87.5771 12.7095 88.6484 12.6431L89.8682 12.5727V12.1841C89.8682 11.7085 89.5537 11.4399 88.9463 11.4399C88.4502 11.4399 88.1065 11.6221 88.0078 11.9404H87.1475C87.2383 11.167 87.9658 10.6709 88.9873 10.6709C90.1162 10.6709 90.7529 11.2329 90.7529 12.1841V15.2607H89.8975V14.6279H89.8271C89.6844 14.8549 89.484 15.04 89.2464 15.1642C89.0088 15.2884 88.7425 15.3473 88.4746 15.3349C88.2856 15.3546 88.0945 15.3344 87.9138 15.2757C87.733 15.217 87.5665 15.1211 87.4251 14.9941C87.2837 14.8672 87.1705 14.712 87.0927 14.5386C87.0149 14.3651 86.9744 14.1774 86.9736 13.9873ZM89.8682 13.6025V13.2261L88.7686 13.2964C88.1484 13.3379 87.8672 13.5488 87.8672 13.9458C87.8672 14.3511 88.2187 14.5869 88.7022 14.5869C88.8438 14.6012 88.9869 14.5869 89.1229 14.5448C89.2589 14.5028 89.3851 14.4337 89.4939 14.3419C89.6026 14.2501 89.6918 14.1373 89.7561 14.0102C89.8204 13.8832 89.8585 13.7446 89.8682 13.6025Z" fill="white"/>
  <path d="M91.9209 13.0073C91.9209 11.5845 92.6523 10.6831 93.79 10.6831C94.0715 10.6702 94.3508 10.7376 94.5953 10.8775C94.8398 11.0173 95.0395 11.224 95.1709 11.4731H95.2373V9H96.126V15.2607H95.2744V14.5493H95.2041C95.0625 14.7968 94.8559 15.0008 94.6066 15.1393C94.3574 15.2778 94.075 15.3455 93.79 15.3349C92.6445 15.335 91.9209 14.4336 91.9209 13.0073ZM92.8389 13.0073C92.8389 13.9624 93.2891 14.5371 94.042 14.5371C94.791 14.5371 95.2539 13.9541 95.2539 13.0112C95.2539 12.0728 94.7862 11.4815 94.042 11.4815C93.2939 11.4815 92.8389 12.0601 92.8389 13.0073Z" fill="white"/>
  <path d="M99.8027 13.0073C99.7744 12.7114 99.8083 12.4129 99.9021 12.1308C99.9959 11.8487 100.148 11.5894 100.348 11.3694C100.548 11.1494 100.791 10.9736 101.063 10.8534C101.335 10.7331 101.629 10.671 101.926 10.671C102.224 10.671 102.518 10.7331 102.789 10.8534C103.061 10.9736 103.305 11.1494 103.505 11.3694C103.705 11.5894 103.857 11.8487 103.95 12.1308C104.044 12.4129 104.078 12.7114 104.05 13.0073C104.079 13.3036 104.045 13.6025 103.952 13.8851C103.858 14.1676 103.706 14.4274 103.506 14.6478C103.306 14.8682 103.062 15.0444 102.79 15.1649C102.518 15.2854 102.224 15.3477 101.926 15.3477C101.629 15.3477 101.334 15.2854 101.062 15.1649C100.79 15.0444 100.546 14.8682 100.346 14.6478C100.146 14.4274 99.9945 14.1676 99.9009 13.8851C99.8073 13.6025 99.7739 13.3036 99.8027 13.0073ZM103.136 13.0073C103.136 12.0313 102.697 11.4605 101.928 11.4605C101.155 11.4605 100.721 12.0313 100.721 13.0073C100.721 13.9912 101.155 14.5576 101.928 14.5576C102.697 14.5576 103.136 13.9873 103.136 13.0073Z" fill="white"/>
  <path d="M105.242 10.7578H106.098V11.4731H106.164C106.277 11.2162 106.467 11.0008 106.708 10.857C106.948 10.7132 107.228 10.6481 107.508 10.6709C107.727 10.6544 107.947 10.6874 108.152 10.7675C108.356 10.8476 108.54 10.9727 108.69 11.1336C108.839 11.2944 108.951 11.4869 109.016 11.6967C109.081 11.9065 109.099 12.1283 109.066 12.3457V15.2607H108.178V12.5688C108.178 11.8452 107.863 11.4853 107.206 11.4853C107.057 11.4784 106.909 11.5037 106.771 11.5596C106.633 11.6154 106.508 11.7004 106.406 11.8088C106.304 11.9172 106.227 12.0464 106.179 12.1875C106.132 12.3286 106.115 12.4784 106.131 12.6264V15.2607H105.242V10.7578Z" fill="white"/>
  <path d="M114.088 9.63672V10.7783H115.063V11.5269H114.088V13.8423C114.088 14.314 114.282 14.5205 114.725 14.5205C114.838 14.5201 114.951 14.5133 115.063 14.5V15.2402C114.904 15.2688 114.742 15.284 114.58 15.2856C113.592 15.2856 113.198 14.938 113.198 14.0698V11.5268H112.483V10.7783H113.198V9.63672H114.088Z" fill="white"/>
  <path d="M116.277 9H117.158V11.4815H117.229C117.347 11.2221 117.542 11.0055 117.788 10.8612C118.033 10.7168 118.317 10.6518 118.602 10.6748C118.819 10.6629 119.037 10.6993 119.24 10.7814C119.442 10.8634 119.624 10.9891 119.772 11.1494C119.92 11.3098 120.031 11.5008 120.097 11.709C120.162 11.9171 120.181 12.1372 120.152 12.3535V15.2607H119.263V12.5728C119.263 11.8535 118.928 11.4893 118.3 11.4893C118.147 11.4767 117.993 11.4977 117.85 11.5508C117.706 11.6038 117.575 11.6877 117.467 11.7964C117.359 11.9051 117.277 12.0362 117.224 12.1803C117.172 12.3244 117.152 12.4782 117.166 12.6308V15.2607H116.277L116.277 9Z" fill="white"/>
  <path d="M125.334 14.0449C125.213 14.4565 124.952 14.8125 124.595 15.0506C124.238 15.2888 123.809 15.3939 123.383 15.3477C123.086 15.3555 122.791 15.2987 122.519 15.1811C122.246 15.0636 122.003 14.8882 121.805 14.6671C121.607 14.4459 121.459 14.1844 121.373 13.9005C121.286 13.6167 121.262 13.3174 121.303 13.0235C121.263 12.7286 121.288 12.4286 121.374 12.144C121.46 11.8593 121.607 11.5965 121.804 11.3734C122.001 11.1504 122.243 10.9722 122.515 10.851C122.787 10.7298 123.081 10.6684 123.379 10.6709C124.632 10.6709 125.388 11.5269 125.388 12.9409V13.251H122.208V13.3008C122.194 13.466 122.215 13.6324 122.269 13.7891C122.323 13.9459 122.409 14.0896 122.522 14.211C122.635 14.3325 122.772 14.429 122.925 14.4944C123.077 14.5598 123.241 14.5926 123.407 14.5908C123.62 14.6163 123.835 14.578 124.026 14.4808C124.217 14.3836 124.374 14.2319 124.478 14.0449L125.334 14.0449ZM122.208 12.5938H124.482C124.494 12.4426 124.473 12.2908 124.422 12.1481C124.371 12.0054 124.291 11.8749 124.186 11.7651C124.082 11.6552 123.956 11.5684 123.816 11.5102C123.676 11.452 123.525 11.4238 123.374 11.4273C123.22 11.4253 123.068 11.4542 122.925 11.5121C122.783 11.5701 122.654 11.6559 122.545 11.7647C122.436 11.8734 122.351 12.0027 122.293 12.1451C122.235 12.2875 122.206 12.4401 122.208 12.5938Z" fill="white"/>
  </svg>
