<svg width="160" height="44" viewBox="0 0 160 44" fill="none" xmlns="http://www.w3.org/2000/svg">
  <rect width="160" height="44" rx="4" fill="black"/>
  <path d="M58.0965 12.37C58.0965 13.21 57.8465 13.88 57.3465 14.37C56.7866 14.96 56.0466 15.26 55.1466 15.26C54.2766 15.26 53.5466 14.96 52.9366 14.36C52.3266 13.76 52.0266 13.01 52.0266 12.13C52.0266 11.24 52.3266 10.5 52.9366 9.9C53.5466 9.3 54.2766 9 55.1466 9C55.5766 9 55.9866 9.08 56.3766 9.25C56.7666 9.42 57.0766 9.64 57.3166 9.92L56.7866 10.45C56.3866 9.98 55.8466 9.74 55.1466 9.74C54.5166 9.74 53.9666 9.96 53.5066 10.41C53.0466 10.85 52.8166 11.43 52.8166 12.14C52.8166 12.85 53.0466 13.43 53.5066 13.87C53.9666 14.31 54.5166 14.54 55.1466 14.54C55.8166 14.54 56.3766 14.32 56.8266 13.87C57.1166 13.58 57.2866 13.17 57.3266 12.65H55.1466V11.93H58.0566C58.0766 12.08 58.0965 12.23 58.0965 12.37Z" fill="white"/>
  <path d="M62.7065 9.87H59.9765V11.77H62.4365V12.49H59.9765V14.39H62.7065V15.13H59.2065V9.13H62.7065V9.87Z" fill="white"/>
  <path d="M65.9565 15.13H65.1865V9.87H63.5065V9.13H67.6265V9.87H65.9465V15.13H65.9565Z" fill="white"/>
  <path d="M70.6166 15.13V9.13H71.3866V15.13H70.6166Z" fill="white"/>
  <path d="M74.8066 15.13H74.0366V9.87H72.3566V9.13H76.4766V9.87H74.7966V15.13H74.8066Z" fill="white"/>
  <path d="M84.2865 14.35C83.6965 14.96 82.9665 15.26 82.0865 15.26C81.2065 15.26 80.4765 14.96 79.8865 14.35C79.2965 13.74 79.0065 13 79.0065 12.13C79.0065 11.26 79.2965 10.51 79.8865 9.91C80.4765 9.3 81.2065 9 82.0865 9C82.9565 9 83.6865 9.3 84.2865 9.91C84.8765 10.52 85.1765 11.26 85.1765 12.13C85.1665 13.01 84.8765 13.75 84.2865 14.35ZM80.4565 13.85C80.8965 14.3 81.4465 14.52 82.0865 14.52C82.7265 14.52 83.2765 14.3 83.7165 13.85C84.1565 13.4 84.3865 12.83 84.3865 12.13C84.3865 11.43 84.1665 10.86 83.7165 10.41C83.2765 9.96 82.7265 9.74 82.0865 9.74C81.4465 9.74 80.8965 9.96 80.4565 10.41C80.0165 10.86 79.7865 11.43 79.7865 12.13C79.7865 12.83 80.0165 13.4 80.4565 13.85Z" fill="white"/>
  <path d="M86.2565 15.13V9.13H87.1965L90.1165 13.8H90.1465L90.1165 12.64V9.13H90.8865V15.13H90.0865L87.0365 10.24H87.0065L87.0365 11.4V15.13H86.2565Z" fill="white"/>
  <path d="M78.8166 23.88C76.4666 23.88 74.5466 25.67 74.5466 28.13C74.5466 30.58 76.4666 32.38 78.8166 32.38C81.1666 32.38 83.0866 30.58 83.0866 28.13C83.0866 25.67 81.1666 23.88 78.8166 23.88ZM78.8166 30.71C77.5266 30.71 76.4165 29.65 76.4165 28.13C76.4165 26.6 77.5266 25.55 78.8166 25.55C80.1066 25.55 81.2166 26.6 81.2166 28.13C81.2166 29.65 80.0966 30.71 78.8166 30.71ZM69.4966 23.88C67.1466 23.88 65.2266 25.67 65.2266 28.13C65.2266 30.58 67.1466 32.38 69.4966 32.38C71.8466 32.38 73.7665 30.58 73.7665 28.13C73.7665 25.67 71.8466 23.88 69.4966 23.88ZM69.4966 30.71C68.2066 30.71 67.0965 29.65 67.0965 28.13C67.0965 26.6 68.2066 25.55 69.4966 25.55C70.7866 25.55 71.8966 26.6 71.8966 28.13C71.8966 29.65 70.7866 30.71 69.4966 30.71ZM58.4166 25.19V26.99H62.7366C62.6066 28 62.2666 28.75 61.7566 29.26C61.1266 29.89 60.1466 30.58 58.4266 30.58C55.7666 30.58 53.6866 28.44 53.6866 25.78C53.6866 23.12 55.7666 20.98 58.4266 20.98C59.8566 20.98 60.9066 21.54 61.6766 22.27L62.9466 21C61.8666 19.97 60.4366 19.18 58.4166 19.18C54.7766 19.18 51.7166 22.14 51.7166 25.79C51.7166 29.43 54.7766 32.4 58.4166 32.4C60.3866 32.4 61.8666 31.76 63.0266 30.55C64.2166 29.36 64.5866 27.68 64.5866 26.33C64.5866 25.91 64.5566 25.52 64.4866 25.2H58.4166V25.19ZM103.727 26.59C103.377 25.64 102.297 23.88 100.087 23.88C97.8966 23.88 96.0766 25.6 96.0766 28.13C96.0766 30.51 97.8766 32.38 100.297 32.38C102.247 32.38 103.377 31.19 103.837 30.5L102.387 29.53C101.907 30.24 101.247 30.71 100.297 30.71C99.3466 30.71 98.6665 30.27 98.2365 29.42L103.927 27.07L103.727 26.59ZM97.9266 28.01C97.8766 26.37 99.1966 25.53 100.147 25.53C100.887 25.53 101.517 25.9 101.727 26.43L97.9266 28.01ZM93.3065 32.13H95.1766V19.63H93.3065V32.13ZM90.2466 24.83H90.1766C89.7566 24.33 88.9566 23.88 87.9366 23.88C85.8066 23.88 83.8566 25.75 83.8566 28.15C83.8566 30.53 85.8066 32.39 87.9366 32.39C88.9466 32.39 89.7566 31.94 90.1766 31.42H90.2365V32.03C90.2365 33.66 89.3666 34.53 87.9666 34.53C86.8266 34.53 86.1166 33.71 85.8266 33.02L84.1965 33.7C84.6665 34.83 85.9066 36.21 87.9666 36.21C90.1566 36.21 92.0066 34.92 92.0066 31.78V24.14H90.2365V24.83H90.2466ZM88.0965 30.71C86.8065 30.71 85.7266 29.63 85.7266 28.15C85.7266 26.65 86.8065 25.56 88.0965 25.56C89.3666 25.56 90.3666 26.66 90.3666 28.15C90.3766 29.63 89.3765 30.71 88.0965 30.71ZM112.487 19.63H108.017V32.13H109.887V27.39H112.497C114.567 27.39 116.597 25.89 116.597 23.51C116.597 21.13 114.547 19.63 112.487 19.63ZM112.527 25.65H109.877V21.36H112.527C113.927 21.36 114.717 22.52 114.717 23.5C114.717 24.48 113.927 25.65 112.527 25.65ZM124.067 23.86C122.717 23.86 121.317 24.46 120.737 25.77L122.397 26.46C122.747 25.77 123.407 25.54 124.097 25.54C125.057 25.54 126.047 26.12 126.057 27.15V27.28C125.717 27.09 124.997 26.8 124.107 26.8C122.317 26.8 120.507 27.78 120.507 29.61C120.507 31.28 121.967 32.36 123.607 32.36C124.857 32.36 125.557 31.8 125.987 31.14H126.047V32.11H127.847V27.32C127.857 25.1 126.197 23.86 124.067 23.86ZM123.837 30.71C123.227 30.71 122.377 30.4 122.377 29.65C122.377 28.69 123.437 28.32 124.357 28.32C125.177 28.32 125.567 28.5 126.057 28.74C125.917 29.89 124.917 30.71 123.837 30.71ZM134.417 24.13L132.277 29.55H132.217L129.997 24.13H127.987L131.317 31.71L129.417 35.92H131.367L136.497 24.13H134.417ZM117.617 32.13H119.487V19.63H117.617V32.13Z" fill="white"/>
  <path d="M23.4177 10.3546C23.1599 10.6301 23.0088 11.0568 23.0088 11.5989V31.26C23.0088 31.8111 23.1599 32.2377 23.4177 32.5044L23.4799 32.5666L34.4926 21.5628V21.4295V21.2962L23.4799 10.2924L23.4177 10.3546Z" fill="url(#paint0_linear_5191_414)"/>
  <path d="M38.1636 25.2337L34.4927 21.5628V21.4295V21.2961L38.1636 17.6252L38.2436 17.6697L42.59 20.1407C43.8343 20.8428 43.8343 21.9983 42.59 22.7094L38.2436 25.1804L38.1636 25.2337Z" fill="url(#paint1_linear_5191_414)"/>
  <path d="M38.2435 25.1803L34.4926 21.4294L23.4177 32.5043C23.8266 32.9399 24.5021 32.9932 25.2665 32.5577L38.2435 25.1803Z" fill="url(#paint2_linear_5191_414)"/>
  <path d="M38.2436 17.6785L25.2577 10.3012C24.4933 9.86567 23.8178 9.919 23.4089 10.3545L34.4927 21.4294L38.2436 17.6785Z" fill="url(#paint3_linear_5191_414)"/>
  <path opacity="0.2" d="M38.1635 25.1003L25.2576 32.4332C24.5377 32.8421 23.8888 32.8154 23.4799 32.4421L23.4177 32.5043L23.4799 32.5666C23.8977 32.9399 24.5377 32.9665 25.2576 32.5577L38.2435 25.1803L38.1635 25.1003Z" fill="black"/>
  <path opacity="0.12" d="M23.4177 32.3799C23.1599 32.1043 23.0088 31.6777 23.0088 31.1355V31.2688C23.0088 31.8199 23.1599 32.2465 23.4177 32.5132L23.4799 32.451L23.4177 32.3799Z" fill="black"/>
  <path opacity="0.12" d="M42.5901 22.5849L38.1548 25.1003L38.2348 25.1803L42.5812 22.7094C43.2034 22.3538 43.5145 21.8916 43.5145 21.4294C43.47 21.8472 43.1589 22.2649 42.5901 22.5849Z" fill="black"/>
  <path opacity="0.25" d="M25.2576 10.4257L42.59 20.274C43.1499 20.5939 43.4699 21.0028 43.5232 21.4294C43.5232 20.9673 43.2121 20.4962 42.59 20.1495L25.2576 10.3012C24.0133 9.59903 23 10.1857 23 11.6078V11.7411C23 10.3101 24.0222 9.72347 25.2576 10.4257Z" fill="white"/>
  <defs>
  <linearGradient id="paint0_linear_5191_414" x1="33.5146" y1="11.3942" x2="18.5978" y2="26.3111" gradientUnits="userSpaceOnUse">
  <stop stop-color="#00A0FF"/>
  <stop offset="0.00657445" stop-color="#00A1FF"/>
  <stop offset="0.2601" stop-color="#00BEFF"/>
  <stop offset="0.5122" stop-color="#00D2FF"/>
  <stop offset="0.7604" stop-color="#00DFFF"/>
  <stop offset="1" stop-color="#00E3FF"/>
  </linearGradient>
  <linearGradient id="paint1_linear_5191_414" x1="44.2116" y1="21.4307" x2="22.7045" y2="21.4307" gradientUnits="userSpaceOnUse">
  <stop stop-color="#FFE000"/>
  <stop offset="0.4087" stop-color="#FFBD00"/>
  <stop offset="0.7754" stop-color="#FFA500"/>
  <stop offset="1" stop-color="#FF9C00"/>
  </linearGradient>
  <linearGradient id="paint2_linear_5191_414" x1="36.2054" y1="23.4703" x2="15.977" y2="43.6987" gradientUnits="userSpaceOnUse">
  <stop stop-color="#FF3A44"/>
  <stop offset="1" stop-color="#C31162"/>
  </linearGradient>
  <linearGradient id="paint3_linear_5191_414" x1="20.6245" y1="3.80932" x2="29.6574" y2="12.8421" gradientUnits="userSpaceOnUse">
  <stop stop-color="#32A071"/>
  <stop offset="0.0685" stop-color="#2DA771"/>
  <stop offset="0.4762" stop-color="#15CF74"/>
  <stop offset="0.8009" stop-color="#06E775"/>
  <stop offset="1" stop-color="#00F076"/>
  </linearGradient>
  </defs>
  </svg>
